<svg xmlns="http://www.w3.org/2000/svg" width="1000" height="750" viewBox="0 0 1000 750">
  <defs>
    <radialGradient id="g" cx="50%" cy="45%" r="75%">
      <stop offset="0%" stop-color="#1c1a20"/>
      <stop offset="100%" stop-color="#141317"/>
    </radialGradient>
  </defs>
  <rect width="1000" height="750" fill="url(#g)"/>
  <g><line x1="0" y1="0" x2="0" y2="750" stroke="#2c2932" stroke-width="1" opacity="0.35"/><line x1="40" y1="0" x2="40" y2="750" stroke="#2c2932" stroke-width="1" opacity="0.35"/><line x1="80" y1="0" x2="80" y2="750" stroke="#2c2932" stroke-width="1" opacity="0.35"/><line x1="120" y1="0" x2="120" y2="750" stroke="#2c2932" stroke-width="1" opacity="0.35"/><line x1="160" y1="0" x2="160" y2="750" stroke="#2c2932" stroke-width="1" opacity="0.35"/><line x1="200" y1="0" x2="200" y2="750" stroke="#2c2932" stroke-width="1" opacity="0.35"/><line x1="240" y1="0" x2="240" y2="750" stroke="#2c2932" stroke-width="1" opacity="0.35"/><line x1="280" y1="0" x2="280" y2="750" stroke="#2c2932" stroke-width="1" opacity="0.35"/><line x1="320" y1="0" x2="320" y2="750" stroke="#2c2932" stroke-width="1" opacity="0.35"/><line x1="360" y1="0" x2="360" y2="750" stroke="#2c2932" stroke-width="1" opacity="0.35"/><line x1="400" y1="0" x2="400" y2="750" stroke="#2c2932" stroke-width="1" opacity="0.35"/><line x1="440" y1="0" x2="440" y2="750" stroke="#2c2932" stroke-width="1" opacity="0.35"/><line x1="480" y1="0" x2="480" y2="750" stroke="#2c2932" stroke-width="1" opacity="0.35"/><line x1="520" y1="0" x2="520" y2="750" stroke="#2c2932" stroke-width="1" opacity="0.35"/><line x1="560" y1="0" x2="560" y2="750" stroke="#2c2932" stroke-width="1" opacity="0.35"/><line x1="600" y1="0" x2="600" y2="750" stroke="#2c2932" stroke-width="1" opacity="0.35"/><line x1="640" y1="0" x2="640" y2="750" stroke="#2c2932" stroke-width="1" opacity="0.35"/><line x1="680" y1="0" x2="680" y2="750" stroke="#2c2932" stroke-width="1" opacity="0.35"/><line x1="720" y1="0" x2="720" y2="750" stroke="#2c2932" stroke-width="1" opacity="0.35"/><line x1="760" y1="0" x2="760" y2="750" stroke="#2c2932" stroke-width="1" opacity="0.35"/><line x1="800" y1="0" x2="800" y2="750" stroke="#2c2932" stroke-width="1" opacity="0.35"/><line x1="840" y1="0" x2="840" y2="750" stroke="#2c2932" stroke-width="1" opacity="0.35"/><line x1="880" y1="0" x2="880" y2="750" stroke="#2c2932" stroke-width="1" opacity="0.35"/><line x1="920" y1="0" x2="920" y2="750" stroke="#2c2932" stroke-width="1" opacity="0.35"/><line x1="960" y1="0" x2="960" y2="750" stroke="#2c2932" stroke-width="1" opacity="0.35"/><line x1="1000" y1="0" x2="1000" y2="750" stroke="#2c2932" stroke-width="1" opacity="0.35"/><line x1="0" y1="0" x2="1000" y2="0" stroke="#2c2932" stroke-width="1" opacity="0.35"/><line x1="0" y1="40" x2="1000" y2="40" stroke="#2c2932" stroke-width="1" opacity="0.35"/><line x1="0" y1="80" x2="1000" y2="80" stroke="#2c2932" stroke-width="1" opacity="0.35"/><line x1="0" y1="120" x2="1000" y2="120" stroke="#2c2932" stroke-width="1" opacity="0.35"/><line x1="0" y1="160" x2="1000" y2="160" stroke="#2c2932" stroke-width="1" opacity="0.35"/><line x1="0" y1="200" x2="1000" y2="200" stroke="#2c2932" stroke-width="1" opacity="0.35"/><line x1="0" y1="240" x2="1000" y2="240" stroke="#2c2932" stroke-width="1" opacity="0.35"/><line x1="0" y1="280" x2="1000" y2="280" stroke="#2c2932" stroke-width="1" opacity="0.35"/><line x1="0" y1="320" x2="1000" y2="320" stroke="#2c2932" stroke-width="1" opacity="0.35"/><line x1="0" y1="360" x2="1000" y2="360" stroke="#2c2932" stroke-width="1" opacity="0.35"/><line x1="0" y1="400" x2="1000" y2="400" stroke="#2c2932" stroke-width="1" opacity="0.35"/><line x1="0" y1="440" x2="1000" y2="440" stroke="#2c2932" stroke-width="1" opacity="0.35"/><line x1="0" y1="480" x2="1000" y2="480" stroke="#2c2932" stroke-width="1" opacity="0.35"/><line x1="0" y1="520" x2="1000" y2="520" stroke="#2c2932" stroke-width="1" opacity="0.35"/><line x1="0" y1="560" x2="1000" y2="560" stroke="#2c2932" stroke-width="1" opacity="0.35"/><line x1="0" y1="600" x2="1000" y2="600" stroke="#2c2932" stroke-width="1" opacity="0.35"/><line x1="0" y1="640" x2="1000" y2="640" stroke="#2c2932" stroke-width="1" opacity="0.35"/><line x1="0" y1="680" x2="1000" y2="680" stroke="#2c2932" stroke-width="1" opacity="0.35"/><line x1="0" y1="720" x2="1000" y2="720" stroke="#2c2932" stroke-width="1" opacity="0.35"/></g>
  <circle cx="500.0" cy="375.0" r="3" fill="#6929B2"/>
  <text x="500.0" y="361.0" text-anchor="middle" font-family="Arial, sans-serif" font-size="30" font-weight="700" fill="#e8e6ec" letter-spacing="1">ANTES — PROYECTO 001</text>
  <text x="500.0" y="395.0" text-anchor="middle" font-family="Arial, sans-serif" font-size="16" fill="#8f8a99" letter-spacing="0.5">Mantenimiento N2</text>
  
    <path d="M24 52 V24 H52" stroke="#6929B2" stroke-width="2" fill="none" opacity="0.8"/>
    <path d="M948 24 H976 V52" stroke="#6929B2" stroke-width="2" fill="none" opacity="0.8"/>
    <path d="M24 698 V726 H52" stroke="#6929B2" stroke-width="2" fill="none" opacity="0.8"/>
    <path d="M948 726 H976 V698" stroke="#6929B2" stroke-width="2" fill="none" opacity="0.8"/>
    
</svg>